<svg width="30" height="29" viewBox="0 0 30 29" fill="none" xmlns="http://www.w3.org/2000/svg">
<path d="M4.125 12.0833V15.7083C4.125 20.2652 4.125 22.5437 5.54065 23.9594C6.9563 25.375 9.23476 25.375 13.7917 25.375H16.2083C20.7652 25.375 23.0437 25.375 24.4594 23.9594C25.875 22.5437 25.875 20.2652 25.875 15.7083V12.0833M4.125 12.0833V11.4792C4.125 10.9181 4.125 10.6376 4.14827 10.4012C4.37429 8.10649 6.18983 6.29095 8.48458 6.06494C8.72089 6.04167 9.00142 6.04167 9.5625 6.04167V6.04167M4.125 12.0833H25.875M25.875 12.0833V11.4792C25.875 10.9181 25.875 10.6376 25.8517 10.4012C25.6257 8.10649 23.8102 6.29095 21.5154 6.06494C21.2791 6.04167 20.9986 6.04167 20.4375 6.04167V6.04167M15 6.04167V3.625M15 6.04167V8.45833M15 6.04167H9.5625M15 6.04167H20.4375M9.5625 6.04167V3.625M9.5625 6.04167V8.45833M20.4375 6.04167V3.625M20.4375 6.04167V8.45833" stroke="#3A3A3A" stroke-width="1.3" stroke-miterlimit="10" stroke-linecap="round"/>
</svg>
