<svg width="18" height="18" viewBox="0 0 18 18" fill="none" xmlns="http://www.w3.org/2000/svg">
<g clip-path="url(#clip0_672_2254)">
<rect width="17.0744" height="17.0744" rx="4.26859" fill="currentColor"/>
<path d="M13.4677 4.91578C13.4044 4.85188 13.3289 4.80116 13.2459 4.76655C13.1628 4.73193 13.0737 4.71411 12.9837 4.71411C12.8937 4.71411 12.8045 4.73193 12.7215 4.76655C12.6384 4.80116 12.563 4.85188 12.4996 4.91578L7.42027 10.0019L5.28627 7.86111C5.22047 7.79754 5.14278 7.74756 5.05766 7.71401C4.97253 7.68046 4.88163 7.66401 4.79015 7.66559C4.69867 7.66718 4.60839 7.68676 4.52448 7.72323C4.44057 7.7597 4.36466 7.81235 4.30109 7.87815C4.23752 7.94396 4.18754 8.02165 4.15399 8.10677C4.12044 8.19189 4.10399 8.28279 4.10557 8.37428C4.10716 8.46576 4.12674 8.55603 4.16321 8.63995C4.19968 8.72386 4.25233 8.79977 4.31813 8.86334L6.9362 11.4814C6.99958 11.5453 7.07499 11.596 7.15807 11.6306C7.24115 11.6653 7.33027 11.6831 7.42027 11.6831C7.51028 11.6831 7.59939 11.6653 7.68247 11.6306C7.76555 11.596 7.84096 11.5453 7.90434 11.4814L13.4677 5.91801C13.5369 5.85417 13.5922 5.77668 13.6299 5.69044C13.6677 5.60419 13.6872 5.51105 13.6872 5.4169C13.6872 5.32274 13.6677 5.22961 13.6299 5.14336C13.5922 5.05711 13.5369 4.97963 13.4677 4.91578V4.91578Z" fill="white"/>
</g>
<rect x="0.711431" y="0.711431" width="15.6515" height="15.6515" rx="3.55716" stroke="currentColor" stroke-width="1.42286"/>
<defs>
<clipPath id="clip0_672_2254">
<rect width="17.0744" height="17.0744" rx="4.26859" fill="white"/>
</clipPath>
</defs>
</svg>
