<svg width="24" height="24" viewBox="0 0 24 24" fill="none" xmlns="http://www.w3.org/2000/svg">
<path d="M3 3L21 21" stroke="#9A9DA4" stroke-width="2" stroke-linecap="round" stroke-linejoin="round"/>
<path fill-rule="evenodd" clip-rule="evenodd" d="M5.39983 6.23001C4.95983 6.56001 4.55683 6.90801 4.18983 7.26201C2.96418 8.45237 1.94944 9.8421 1.18883 11.372C1.09412 11.5676 1.04492 11.7822 1.04492 11.9995C1.04492 12.2169 1.09412 12.4314 1.18883 12.627C1.94904 14.1572 2.96345 15.5473 4.18883 16.738C5.93983 18.423 8.51783 20 11.9998 20C14.2358 20 16.0998 19.35 17.6098 18.438L13.6658 14.495C13.0887 14.8805 12.3959 15.054 11.7052 14.9859C11.0146 14.9178 10.3689 14.6124 9.87816 14.1217C9.38744 13.631 9.08202 12.9853 9.01395 12.2946C8.94588 11.604 9.11936 10.9111 9.50483 10.334L5.40083 6.22901L5.39983 6.23001ZM20.6658 15.838C21.5161 14.8649 22.2371 13.7859 22.8108 12.628C22.9055 12.4324 22.9547 12.2179 22.9547 12.0005C22.9547 11.7832 22.9055 11.5686 22.8108 11.373C22.0506 9.84282 21.0362 8.45275 19.8108 7.26201C18.0598 5.57701 15.4828 4.00001 11.9998 4.00001C11.052 3.99727 10.1078 4.11931 9.19183 4.36301L20.6658 15.838Z" fill="#9A9DA4"/>
</svg>
