<svg width="24" height="24" viewBox="0 0 24 24" fill="none" xmlns="http://www.w3.org/2000/svg">
<path d="M14 12C14 12.5304 13.7893 13.0391 13.4142 13.4142C13.0391 13.7893 12.5304 14 12 14C11.4696 14 10.9609 13.7893 10.5858 13.4142C10.2107 13.0391 10 12.5304 10 12C10 11.4696 10.2107 10.9609 10.5858 10.5858C10.9609 10.2107 11.4696 10 12 10C12.5304 10 13.0391 10.2107 13.4142 10.5858C13.7893 10.9609 14 11.4696 14 12Z" fill="#9A9DA4"/>
<path fill-rule="evenodd" clip-rule="evenodd" d="M11.9999 3C6.40793 3 1.70993 6.824 0.37793 12C1.70993 17.176 6.40793 21 11.9999 21C17.5919 21 22.2899 17.176 23.6219 12C22.2899 6.824 17.5919 3 11.9999 3ZM15.9999 12C15.9999 13.0609 15.5785 14.0783 14.8284 14.8284C14.0782 15.5786 13.0608 16 11.9999 16C10.9391 16 9.92165 15.5786 9.1715 14.8284C8.42136 14.0783 7.99993 13.0609 7.99993 12C7.99993 10.9391 8.42136 9.92172 9.1715 9.17157C9.92165 8.42143 10.9391 8 11.9999 8C13.0608 8 14.0782 8.42143 14.8284 9.17157C15.5785 9.92172 15.9999 10.9391 15.9999 12Z" fill="#9A9DA4"/>
</svg>
