<svg width="30" height="29" viewBox="0 0 30 29" fill="none" xmlns="http://www.w3.org/2000/svg">
<path d="M4.125 14.3945C4.125 12.0728 4.125 10.9119 4.61648 9.90705C5.10795 8.90216 6.02427 8.18947 7.85691 6.76408L9.06524 5.82427C11.9162 3.60687 13.3416 2.49817 15 2.49817C16.6584 2.49817 18.0838 3.60687 20.9348 5.82427L22.1431 6.76408C23.9757 8.18947 24.892 8.90216 25.3835 9.90705C25.875 10.9119 25.875 12.0728 25.875 14.3945V16.9167C25.875 21.4736 25.875 23.752 24.4594 25.1677C23.0437 26.5833 20.7652 26.5833 16.2083 26.5833H13.7917C9.23476 26.5833 6.9563 26.5833 5.54065 25.1677C4.125 23.752 4.125 21.4736 4.125 16.9167V14.3945Z" stroke="#3A3A3A" stroke-width="1.3" stroke-miterlimit="10"/>
<path d="M11.375 20.5417C11.375 19.4156 11.375 18.8526 11.559 18.4085C11.8042 17.8164 12.2747 17.3459 12.8668 17.1006C13.311 16.9167 13.874 16.9167 15 16.9167V16.9167C16.126 16.9167 16.689 16.9167 17.1332 17.1006C17.7253 17.3459 18.1958 17.8164 18.441 18.4085C18.625 18.8526 18.625 19.4156 18.625 20.5417V26.5833H11.375V20.5417Z" stroke="#3A3A3A" stroke-width="1.3" stroke-miterlimit="10"/>
</svg>
