<svg width="40" height="40" viewBox="0 0 40 40" fill="none" xmlns="http://www.w3.org/2000/svg">
<rect width="40" height="40" rx="20" fill="#719EFF"/>
<path fill-rule="evenodd" clip-rule="evenodd" d="M19.8333 14C19.9659 14 20.0931 14.0527 20.1869 14.1464C20.2807 14.2402 20.3333 14.3674 20.3333 14.5V19.3333H25.1667C25.2993 19.3333 25.4265 19.386 25.5202 19.4798C25.614 19.5735 25.6667 19.7007 25.6667 19.8333C25.6667 19.9659 25.614 20.0931 25.5202 20.1869C25.4265 20.2807 25.2993 20.3333 25.1667 20.3333H20.3333V25.1667C20.3333 25.2993 20.2807 25.4265 20.1869 25.5202C20.0931 25.614 19.9659 25.6667 19.8333 25.6667C19.7007 25.6667 19.5735 25.614 19.4798 25.5202C19.386 25.4265 19.3333 25.2993 19.3333 25.1667V20.3333H14.5C14.3674 20.3333 14.2402 20.2807 14.1464 20.1869C14.0527 20.0931 14 19.9659 14 19.8333C14 19.7007 14.0527 19.5735 14.1464 19.4798C14.2402 19.386 14.3674 19.3333 14.5 19.3333H19.3333V14.5C19.3333 14.3674 19.386 14.2402 19.4798 14.1464C19.5735 14.0527 19.7007 14 19.8333 14Z" fill="#FEFEFE"/>
</svg>
