<svg width="10" height="10" viewBox="0 0 10 10" fill="none" xmlns="http://www.w3.org/2000/svg">
<path d="M5.76035 1.44153L6.49874 2.9302C6.59943 3.13744 6.86793 3.33621 7.09449 3.37427L8.43282 3.59842C9.28868 3.74221 9.49006 4.36813 8.87333 4.9856L7.83288 6.03444C7.65667 6.21206 7.56017 6.55463 7.61471 6.79992L7.91259 8.09829C8.14753 9.12598 7.60632 9.52353 6.70431 8.98642L5.44989 8.23785C5.22334 8.10252 4.84995 8.10252 4.6192 8.23785L3.36478 8.98642C2.46697 9.52353 1.92156 9.12175 2.15651 8.09829L2.45438 6.79992C2.50892 6.55463 2.41242 6.21206 2.23622 6.03444L1.19576 4.9856C0.583233 4.36813 0.780416 3.74221 1.63628 3.59842L2.97461 3.37427C3.19696 3.33621 3.46547 3.13744 3.56616 2.9302L4.30455 1.44153C4.70731 0.633749 5.36179 0.633749 5.76035 1.44153Z" fill="#FF6D48"/>
</svg>
