<svg width="9" height="9" viewBox="0 0 9 9" fill="none" xmlns="http://www.w3.org/2000/svg">
<path d="M5.14859 1.31636L5.80859 2.63636C5.89859 2.82011 6.13859 2.99636 6.34109 3.03011L7.53734 3.22886C8.30234 3.35636 8.48234 3.91136 7.93109 4.45886L7.00109 5.38886C6.84359 5.54636 6.75734 5.85011 6.80609 6.06761L7.07234 7.21886C7.28234 8.13011 6.79859 8.48261 5.99234 8.00636L4.87109 7.34261C4.66859 7.22261 4.33484 7.22261 4.12859 7.34261L3.00734 8.00636C2.20484 8.48261 1.71734 8.12636 1.92734 7.21886L2.19359 6.06761C2.24234 5.85011 2.15609 5.54636 1.99859 5.38886L1.06859 4.45886C0.521094 3.91136 0.697344 3.35636 1.46234 3.22886L2.65859 3.03011C2.85734 2.99636 3.09734 2.82011 3.18734 2.63636L3.84734 1.31636C4.20734 0.600112 4.79234 0.600112 5.14859 1.31636Z" fill="#FF6D48"/>
</svg>
