<svg width="30" height="29" viewBox="0 0 30 29" fill="none" xmlns="http://www.w3.org/2000/svg">
<g clip-path="url(#clip0_13_1285)">
<path d="M15.1931 13.1346C15.0723 13.1225 14.9273 13.1225 14.7943 13.1346C11.9185 13.0379 9.63477 10.6817 9.63477 7.78169C9.63477 4.82127 12.0273 2.41669 14.9998 2.41669C17.9602 2.41669 20.3648 4.82127 20.3648 7.78169C20.3527 10.6817 18.0689 13.0379 15.1931 13.1346Z" stroke="#3A3A3A" stroke-width="1.3" stroke-linecap="round" stroke-linejoin="round"/>
<path d="M9.15162 17.5933C6.22745 19.5508 6.22745 22.7408 9.15162 24.6862C12.4745 26.9096 17.9241 26.9096 21.247 24.6862C24.1712 22.7287 24.1712 19.5387 21.247 17.5933C17.9362 15.3821 12.4866 15.3821 9.15162 17.5933Z" stroke="#3A3A3A" stroke-width="1.3" stroke-linecap="round" stroke-linejoin="round"/>
</g>
<defs>
<clipPath id="clip0_13_1285">
<rect width="29" height="29" fill="white" transform="translate(0.5)"/>
</clipPath>
</defs>
</svg>
